HIERARCHY
ROOT	Hips
{
	OFFSET	0.000	0.000	0.000
	CHANNELS	6	Xposition	Yposition	Zposition	Yrotation	Xrotation	Zrotation
	JOINT	Chest
	{
		OFFSET	0.000	8.484	-3.948
		CHANNELS	3	Yrotation	Xrotation	Zrotation
		JOINT	Chest2
		{
			OFFSET	-0.000	24.009	-0.000
			CHANNELS	3	Yrotation	Xrotation	Zrotation
			JOINT	LeftCollar
			{
				OFFSET	7.000	16.208	1.904
				CHANNELS	3	Yrotation	Xrotation	Zrotation
				JOINT	LeftShoulder
				{
					OFFSET	13.608	0.000	0.000
					CHANNELS	3	Yrotation	Xrotation	Zrotation
					JOINT	LeftElbow
					{
						OFFSET	-0.000	-27.102	0.000
						CHANNELS	3	Yrotation	Xrotation	Zrotation
						JOINT	LeftWrist
						{
							OFFSET	-0.000	-28.300	-0.000
							CHANNELS	3	Yrotation	Xrotation	Zrotation
							JOINT	LeftFinger0
							{
								OFFSET	-0.103	-2.078	2.785
								CHANNELS	3	Yrotation	Xrotation	Zrotation
								JOINT	LeftFinger01
								{
									OFFSET	0.000	-3.989	0.000
									CHANNELS	3	Yrotation	Xrotation	Zrotation
									JOINT	LeftFinger02
									{
										OFFSET	0.000	-3.028	0.000
										CHANNELS	3	Yrotation	Xrotation	Zrotation
										End Site
										{
											OFFSET	0.000	-4.000	0.000
										}
									}
								}
							}
							JOINT	LeftFinger1
							{
								OFFSET	-0.103	-7.977	2.543
								CHANNELS	3	Yrotation	Xrotation	Zrotation
								JOINT	LeftFinger11
								{
									OFFSET	0.000	-4.500	0.000
									CHANNELS	3	Yrotation	Xrotation	Zrotation
									JOINT	LeftFinger12
									{
										OFFSET	0.000	-2.768	0.000
										CHANNELS	3	Yrotation	Xrotation	Zrotation
										End Site
										{
											OFFSET	-0.000	-2.713	-0.000
										}
									}
								}
							}
							JOINT	LeftFinger2
							{
								OFFSET	-0.103	-8.132	0.545
								CHANNELS	3	Yrotation	Xrotation	Zrotation
								JOINT	LeftFinger21
								{
									OFFSET	0.000	-4.700	0.000
									CHANNELS	3	Yrotation	Xrotation	Zrotation
									JOINT	LeftFinger22
									{
										OFFSET	0.000	-3.100	0.000
										CHANNELS	3	Yrotation	Xrotation	Zrotation
										End Site
										{
											OFFSET	-0.000	-2.998	-0.000
										}
									}
								}
							}
							JOINT	LeftFinger3
							{
								OFFSET	-0.103	-7.699	-1.421
								CHANNELS	3	Yrotation	Xrotation	Zrotation
								JOINT	LeftFinger31
								{
									OFFSET	0.000	-4.300	0.000
									CHANNELS	3	Yrotation	Xrotation	Zrotation
									JOINT	LeftFinger32
									{
										OFFSET	0.000	-2.773	0.000
										CHANNELS	3	Yrotation	Xrotation	Zrotation
										End Site
										{
											OFFSET	-0.000	-2.700	-0.000
										}
									}
								}
							}
							JOINT	LeftFinger4
							{
								OFFSET	-0.103	-6.948	-3.111
								CHANNELS	3	Yrotation	Xrotation	Zrotation
								JOINT	LeftFinger41
								{
									OFFSET	-0.000	-3.500	-0.000
									CHANNELS	3	Yrotation	Xrotation	Zrotation
									JOINT	LeftFinger42
									{
										OFFSET	0.000	-2.200	0.000
										CHANNELS	3	Yrotation	Xrotation	Zrotation
										End Site
										{
											OFFSET	-0.000	-2.241	-0.000
										}
									}
								}
							}
						}
					}
				}
			}
			JOINT	Neck
			{
				OFFSET	-0.000	16.208	-0.000
				CHANNELS	3	Yrotation	Xrotation	Zrotation
				JOINT	Head
				{
					OFFSET	-0.000	18.883	0.000
					CHANNELS	3	Yrotation	Xrotation	Zrotation
					End Site
					{
						OFFSET	-0.012	20.534	-0.005
					}
				}
			}
			JOINT	RightCollar
			{
				OFFSET	-7.000	16.208	1.904
				CHANNELS	3	Yrotation	Xrotation	Zrotation
				JOINT	RightShoulder
				{
					OFFSET	-13.608	0.000	-0.000
					CHANNELS	3	Yrotation	Xrotation	Zrotation
					JOINT	RightElbow
					{
						OFFSET	0.000	-27.102	0.000
						CHANNELS	3	Yrotation	Xrotation	Zrotation
						JOINT	RightWrist
						{
							OFFSET	0.000	-28.300	-0.000
							CHANNELS	3	Yrotation	Xrotation	Zrotation
							JOINT	RightFinger0
							{
								OFFSET	0.103	-2.078	2.785
								CHANNELS	3	Yrotation	Xrotation	Zrotation
								JOINT	RightFinger01
								{
									OFFSET	0.000	-3.989	0.000
									CHANNELS	3	Yrotation	Xrotation	Zrotation
									JOINT	RightFinger02
									{
										OFFSET	0.000	-3.028	0.000
										CHANNELS	3	Yrotation	Xrotation	Zrotation
										End Site
										{
											OFFSET	0.008	-4.000	0.004
										}
									}
								}
							}
							JOINT	RightFinger1
							{
								OFFSET	0.103	-7.977	2.543
								CHANNELS	3	Yrotation	Xrotation	Zrotation
								JOINT	RightFinger11
								{
									OFFSET	0.000	-4.500	0.000
									CHANNELS	3	Yrotation	Xrotation	Zrotation
									JOINT	RightFinger12
									{
										OFFSET	0.000	-2.768	0.000
										CHANNELS	3	Yrotation	Xrotation	Zrotation
										End Site
										{
											OFFSET	-0.000	-2.713	-0.000
										}
									}
								}
							}
							JOINT	RightFinger2
							{
								OFFSET	0.103	-8.132	0.545
								CHANNELS	3	Yrotation	Xrotation	Zrotation
								JOINT	RightFinger21
								{
									OFFSET	0.000	-4.700	0.000
									CHANNELS	3	Yrotation	Xrotation	Zrotation
									JOINT	RightFinger22
									{
										OFFSET	0.000	-3.100	0.000
										CHANNELS	3	Yrotation	Xrotation	Zrotation
										End Site
										{
											OFFSET	-0.000	-2.998	-0.000
										}
									}
								}
							}
							JOINT	RightFinger3
							{
								OFFSET	0.103	-7.699	-1.421
								CHANNELS	3	Yrotation	Xrotation	Zrotation
								JOINT	RightFinger31
								{
									OFFSET	0.000	-4.300	0.000
									CHANNELS	3	Yrotation	Xrotation	Zrotation
									JOINT	RightFinger32
									{
										OFFSET	0.000	-2.773	0.000
										CHANNELS	3	Yrotation	Xrotation	Zrotation
										End Site
										{
											OFFSET	-0.000	-2.700	-0.000
										}
									}
								}
							}
							JOINT	RightFinger4
							{
								OFFSET	0.103	-6.948	-3.111
								CHANNELS	3	Yrotation	Xrotation	Zrotation
								JOINT	RightFinger41
								{
									OFFSET	0.000	-3.500	0.000
									CHANNELS	3	Yrotation	Xrotation	Zrotation
									JOINT	RightFinger42
									{
										OFFSET	-0.000	-2.200	-0.000
										CHANNELS	3	Yrotation	Xrotation	Zrotation
										End Site
										{
											OFFSET	-0.000	-2.241	-0.000
										}
									}
								}
							}
						}
					}
				}
			}
		}
	}
	JOINT	LeftHip
	{
		OFFSET	8.100	0.000	0.000
		CHANNELS	3	Yrotation	Xrotation	Zrotation
		JOINT	LeftKnee
		{
			OFFSET	-0.000	-43.200	0.000
			CHANNELS	3	Yrotation	Xrotation	Zrotation
			JOINT	LeftAnkle
			{
				OFFSET	0.062	-43.300	0.000
				CHANNELS	3	Yrotation	Xrotation	Zrotation
				JOINT	LeftToe
				{
					OFFSET	-0.000	-6.239	13.169
					CHANNELS	3	Yrotation	Xrotation	Zrotation
					End Site
					{
						OFFSET	0.000	0.000	4.663
					}
				}
			}
		}
	}
	JOINT	RightHip
	{
		OFFSET	-8.100	-0.000	-0.000
		CHANNELS	3	Yrotation	Xrotation	Zrotation
		JOINT	RightKnee
		{
			OFFSET	0.000	-43.200	0.000
			CHANNELS	3	Yrotation	Xrotation	Zrotation
			JOINT	RightAnkle
			{
				OFFSET	-0.063	-43.300	0.000
				CHANNELS	3	Yrotation	Xrotation	Zrotation
				JOINT	RightToe
				{
					OFFSET	0.000	-6.239	13.169
					CHANNELS	3	Yrotation	Xrotation	Zrotation
					End Site
					{
						OFFSET	0.000	0.000	4.663
					}
				}
			}
		}
	}
}
MOTION
Frames:	4
Frame Time:	0.010
0.000	93.997	-0.000	-0.000	0.000	-0.000	-0.000	-0.000	-0.000	0.000	-0.000	-0.000	-15.000	-0.000	-0.000	0.000	-40.000	-360.000	-180.000	290.000	-180.000	-817.100	398.495	-406.913	-19.158	349.395	-349.067	-367.849	337.852	-5.784	0.000	0.000	-3.626	-19.728	-0.479	-5.618	0.000	0.000	-5.765	0.000	0.000	-3.843	-7.969	358.012	-27.980	0.000	-0.000	-28.416	0.000	0.000	-18.944	2.019	355.421	-29.262	0.000	0.000	-26.194	0.000	0.000	-17.463	-343.583	355.485	-13.988	-0.000	-0.000	-7.409	-0.000	0.000	-4.939	-0.000	-0.000	-0.000	-0.000	-0.000	-0.000	15.000	-0.000	0.000	-0.000	-40.000	0.000	-180.000	290.000	-180.000	-263.034	36.784	-307.377	-335.451	37.971	-356.248	-17.690	362.498	-339.925	-0.000	0.000	-345.956	-0.778	0.697	-348.476	0.000	-0.000	-348.302	0.000	0.000	-352.201	0.067	0.279	-350.413	-0.000	0.000	-350.017	0.000	0.000	-353.344	-12.206	358.252	-336.619	0.000	-0.000	-339.696	0.000	-0.000	-346.464	-15.032	354.822	-337.908	0.000	0.000	-344.234	0.000	-0.000	-349.490	0.000	-0.000	-0.000	0.000	0.000	-0.000	-0.000	0.000	0.000	-0.000	-0.000	0.000	0.000	-0.000	-0.000	-0.000	-0.000	-0.000	-0.000	0.000	-0.000	0.000	-0.000	-0.000	
0.000	93.997	-0.000	-0.000	0.000	-0.000	-0.000	-0.000	-0.000	0.000	-0.000	-0.000	-15.000	-0.000	-0.000	0.000	-40.000	-360.000	-180.000	290.000	-180.000	-817.246	398.057	-407.439	-19.133	349.390	-349.065	-367.925	337.828	-5.736	0.000	-0.000	-3.596	-19.516	-0.602	-7.222	0.000	-0.000	-7.392	0.000	0.000	-4.928	-8.246	357.970	-27.619	0.000	-0.000	-28.063	0.000	0.000	-18.709	0.892	355.260	-27.352	0.000	0.000	-24.316	0.000	0.000	-16.210	-344.406	355.382	-12.897	-0.000	-0.000	-6.385	-0.000	0.000	-4.257	-0.000	-0.000	-0.000	-0.000	-0.000	-0.000	15.000	-0.000	0.000	-0.000	-40.000	0.000	-180.000	290.000	-180.000	-262.684	36.932	-306.827	-335.550	38.001	-356.416	-17.665	362.534	-340.335	-0.000	0.000	-346.244	-0.730	0.602	-351.010	0.000	-0.000	-350.346	-0.000	0.000	-353.564	-0.049	0.310	-348.757	0.000	-0.000	-348.967	-0.000	0.000	-352.645	-13.481	358.599	-335.056	0.000	-0.000	-338.138	-0.000	0.000	-345.425	-15.402	354.888	-337.296	0.000	-0.000	-343.665	0.000	-0.000	-349.110	0.000	-0.000	-0.000	0.000	0.000	-0.000	-0.000	0.000	0.000	-0.000	-0.000	0.000	0.000	-0.000	-0.000	-0.000	-0.000	-0.000	-0.000	0.000	-0.000	0.000	-0.000	-0.000	
0.000	93.997	-0.000	-0.000	0.000	-0.000	-0.000	-0.000	-0.000	0.000	-0.000	-0.000	-15.000	-0.000	-0.000	0.000	-40.000	-360.000	-180.000	290.000	-180.000	-817.482	397.535	-408.046	-19.096	349.382	-349.076	-368.043	337.802	-5.705	0.000	-0.000	-3.577	-19.014	-0.760	-9.615	0.000	0.000	-9.797	0.000	0.000	-6.531	-8.786	357.900	-26.843	0.000	-0.000	-27.308	0.000	0.000	-18.205	0.520	355.330	-25.443	0.000	0.000	-22.460	0.000	0.000	-14.974	-345.022	355.327	-11.851	-0.000	-0.000	-5.390	-0.000	0.000	-3.593	-0.000	-0.000	-0.000	-0.000	-0.000	-0.000	15.000	-0.000	0.000	-0.000	-40.000	0.000	-180.000	290.000	-180.000	-262.134	36.952	-306.109	-335.669	38.031	-356.601	-17.665	362.587	-340.783	-0.000	0.000	-346.555	-1.062	0.567	-353.094	0.000	-0.000	-352.177	0.000	-0.000	-354.785	0.247	0.238	-347.067	-0.000	0.000	-347.654	0.000	0.000	-351.769	-14.536	358.907	-333.956	0.000	-0.000	-337.024	-0.000	-0.000	-344.683	-15.581	354.925	-337.084	0.000	0.000	-343.475	-0.000	0.000	-348.983	0.000	-0.000	-0.000	0.000	0.000	-0.000	-0.000	0.000	0.000	-0.000	-0.000	0.000	0.000	-0.000	-0.000	-0.000	-0.000	-0.000	-0.000	0.000	-0.000	0.000	-0.000	-0.000	
0.000	93.997	-0.000	-0.000	0.000	-0.000	-0.000	-0.000	-0.000	0.000	-0.000	-0.000	-15.000	-0.000	-0.000	0.000	-40.000	-360.000	-180.000	290.000	-180.000	-817.891	396.895	-408.840	-19.031	349.369	-349.085	-368.248	337.749	-5.617	0.000	0.000	-3.523	-18.230	-0.901	-12.475	0.000	0.000	-12.649	0.000	0.000	-8.433	-9.241	357.883	-25.758	0.000	-0.000	-26.243	0.000	0.000	-17.495	0.149	355.423	-23.408	0.000	0.000	-20.518	0.000	0.000	-13.678	-345.451	355.310	-10.858	-0.000	-0.000	-4.432	-0.000	0.000	-2.955	-0.000	-0.000	-0.000	-0.000	-0.000	-0.000	15.000	-0.000	0.000	-0.000	-40.000	0.000	-180.000	290.000	-180.000	-261.520	36.946	-305.289	-335.810	38.056	-356.786	-17.726	362.666	-341.230	-0.000	0.000	-346.861	-1.529	0.531	-354.483	0.000	-0.000	-353.762	0.000	-0.000	-355.842	0.581	0.086	-345.712	0.000	0.000	-346.184	-0.000	0.000	-350.790	-15.085	359.038	-333.110	0.000	-0.000	-336.119	-0.000	-0.000	-344.079	-15.728	355.016	-337.185	0.000	0.000	-343.604	0.000	0.000	-349.069	0.000	-0.000	-0.000	0.000	0.000	-0.000	-0.000	0.000	0.000	-0.000	-0.000	0.000	0.000	-0.000	-0.000	-0.000	-0.000	-0.000	-0.000	0.000	-0.000	0.000	-0.000	-0.000	
